# xmcd
#
# Track frame offsets:
#	150
#	8629
#	13957
#	25435
#	31363
#	41567
#	47646
#	56425
#	64378
#	75783
#	81486
#	95591
#	100769
#	109623
#	117352
#	122906
#	131685
#	141473
#
# Disc length: 1989 seconds
#
# Revision: 0
# Processed by: cddbd v1.5.2PL0 Copyright (c) Steve Scherf et al.
# Submitted via: Jack! The Knife 17 Overdose
#
DISCID=f407c312
DTITLE=La Polla Records - Salve
DYEAR=1984
DGENRE=Punk
TTITLE0=Venganza
TTITLE1=Porno En Acción
TTITLE2=Tope Bwana
TTITLE3=Estrella Del Rock
TTITLE4=Delincuencia
TTITLE5=Los Siete Enanitos
TTITLE6=Nuestra Alegre Juventud
TTITLE7=Críticos
TTITLE8=Muy Punk
TTITLE9=Herpes, Talco Y Tecno Pop
TTITLE10=Salve
TTITLE11=Asi Casca La Basca
TTITLE12=Come Mierda
TTITLE13=El Gurú
TTITLE14=Tu Alucinas
TTITLE15=El 7o. De Michigan
TTITLE16=Canción De Cuna
TTITLE17=Txus
EXTD=Patxi Goñi
EXTT0=
EXTT1=
EXTT2=
EXTT3=
EXTT4=
EXTT5=
EXTT6=
EXTT7=
EXTT8=
EXTT9=
EXTT10=
EXTT11=
EXTT12=
EXTT13=
EXTT14=
EXTT15=
EXTT16=
EXTT17=
PLAYORDER=
